<svg width="25" height="24" viewBox="0 0 25 24" fill="none" xmlns="http://www.w3.org/2000/svg">
<path d="M4.91389 17.979H20.9983C21.5536 17.979 22.0035 18.5343 22.0035 18.9842V20.9948C22.0035 21.55 21.5534 22 20.9983 22H4.91389C4.35864 22 3.90869 21.4447 3.90869 20.9948V18.9842C3.90869 18.429 4.3588 17.979 4.91389 17.979Z" fill="#70655C"/>
<path d="M11.9509 12.0683V16.2301H10.9455C10.679 16.2301 10.4233 16.336 10.2347 16.5245C10.0462 16.7131 9.94033 16.9687 9.94033 17.2354H15.9721C15.9721 16.9687 15.866 16.7131 15.6776 16.5245C15.489 16.336 15.2333 16.2301 14.9667 16.2301H13.9614V12.0683C15.236 11.7391 16.2687 10.8072 16.7264 9.573C17.184 8.33896 17.0087 6.95887 16.2571 5.87842C15.5053 4.79786 14.2724 4.15375 12.9561 4.15375C11.6397 4.15375 10.4069 4.79786 9.65504 5.87842C8.90339 6.95887 8.72806 8.33893 9.18576 9.573C9.64344 10.8072 10.6763 11.7391 11.9509 12.0683Z" fill="#70655C"/>
<path d="M17.6209 7.67975C17.3075 4.85897 15.1397 3.97966 14.095 3.8926C14.4867 3.02198 15.2703 1.22853 15.2703 1.01958C15.2703 0.810634 15.4444 2.3255 15.5315 3.10905L17.7515 1.28076L17.0986 3.8926L21.9305 2.71727L18.7963 6.37384L20.8857 7.28798C19.8845 7.41857 17.8299 7.67975 17.6209 7.67975Z" fill="#B4A498"/>
</svg>
