<svg width="25" height="24" viewBox="0 0 25 24" fill="none" xmlns="http://www.w3.org/2000/svg">
<path d="M8.47522 15.3926L2.90869 21.9467L4.04594 23.084L10.5701 17.5174L8.47522 15.3926Z" fill="#70655C"/>
<path d="M10.0911 13.0883L8.53491 14.6445C11.7372 17.8468 10.6598 16.7694 11.0189 17.1285L11.3481 17.4577L12.9043 15.9015C14.0416 16.2307 15.3285 16.081 16.346 15.3927L10.5999 9.64661C9.91158 10.6641 9.73202 11.9211 10.0911 13.0883Z" fill="#70655C"/>
<path d="M19.814 5.71588C20.4035 4.38954 22.9088 3.65272 22.9088 3.65272C20.8438 3.50308 17.723 4.94802 15.8376 7.91085C15.5084 8.41961 14.7602 8.59918 14.3113 8.15027C13.8325 7.70135 14.2514 6.95316 15.1493 6.05534C13.1741 6.44439 11.6777 7.37215 11.2288 9.40722L16.2267 14.4051C20.5662 12.5496 22.6611 10.3051 21.3742 7.40208C20.2968 9.61672 18.5272 7.63124 19.814 5.71588Z" fill="#70655C"/>
<path d="M16.9738 9.03732C16.9738 8.15825 18.104 7.27917 18.104 7.27917C16.7226 7.53034 16.1768 8.09334 14.8389 10.1676C14.4621 10.5269 13.9016 10.3563 13.5831 10.042C13.2433 9.7277 12.9459 8.41004 13.5831 7.78149C12.4528 8.78615 12.5202 8.88578 12.2017 10.3105L15.7483 13.8094C18.8277 12.5104 20.5242 11.3208 19.611 9.28846C18.8465 10.8389 17.0994 10.5443 16.9738 9.03732Z" fill="#B4A498"/>
<path d="M18.6348 14.2893C19.8983 13.7265 22.1083 12.2364 22.7612 9.84225C23.0068 11.628 22.4665 14.4107 18.6348 14.2893Z" fill="#B4A498"/>
<path d="M16.364 5.95126C16.6361 4.62371 17.5965 1.91545 22.7545 2.94705C19.6597 2.78817 17.2459 4.33022 16.364 5.95126Z" fill="#B4A498"/>
</svg>
