<svg width="25" height="24" viewBox="0 0 25 24" fill="none" xmlns="http://www.w3.org/2000/svg">
<path d="M22.1603 14.5599L20.2678 12.6816L16.3529 16.5669C15.6541 17.2604 14.7769 17.7126 13.8242 17.8818L16.3186 20.3573C16.547 20.5841 16.9176 20.5841 17.146 20.3573L22.1603 15.3812C22.3888 15.1544 22.3888 14.7866 22.1603 14.5599Z" fill="#B4A498"/>
<path d="M20.2232 12.2635C20.8915 11.608 20.8917 10.5413 20.2241 9.88534C20.2233 9.88458 20.2225 9.88383 20.2218 9.88307C20.0566 9.72116 19.8636 9.59636 19.6534 9.5129C19.8356 9.0608 19.8741 8.29624 19.2706 7.70403C19.269 7.70252 19.2675 7.70085 19.2658 7.69934C19.1013 7.53909 18.9096 7.4155 18.7009 7.3325C18.883 6.8807 18.9216 6.11599 18.3184 5.52408C18.318 5.52363 18.3177 5.52333 18.3173 5.52302C18.152 5.36081 17.9588 5.23571 17.7484 5.15225C17.9306 4.70015 17.969 3.93543 17.3655 3.34323C17.3654 3.34323 17.3654 3.34308 17.3652 3.34308C17.3651 3.34293 17.3649 3.34277 17.3647 3.34262C16.6961 2.68665 15.6082 2.68665 14.9396 3.34262L13.8154 4.44524L14.3902 5.00912C15.3481 5.94877 15.3481 7.4776 14.3904 8.41725C14.068 8.73335 13.672 8.95054 13.2403 9.05398C13.137 9.46686 12.9215 9.85823 12.5931 10.1802C12.2712 10.496 11.8758 10.7131 11.4446 10.8167C11.3392 11.2395 11.1178 11.6276 10.796 11.9432C10.4741 12.259 10.0787 12.476 9.64748 12.5796C9.54203 13.0025 9.32064 13.3906 8.99888 13.7063C8.53494 14.1613 8.10486 14.3666 7.4487 14.3666C6.79253 14.3666 6.23465 13.8848 5.7707 13.4295L5.1959 12.8656L3.03258 15.0234C2.80099 15.2506 2.80099 15.6188 3.03258 15.846L8.11268 20.8296C8.34426 21.0568 8.71959 21.0566 8.95118 20.8296L12.5877 17.2623H13.6123C14.5896 17.2623 15.5083 16.8888 16.1994 16.211L20.2232 12.2635Z" fill="#70655C"/>
<path d="M6.5314 13.4125C7.05965 13.9504 7.91629 13.9504 8.44454 13.4125C8.97295 12.8747 8.97295 12.0028 8.44454 11.4649C8.97295 12.0028 9.82943 12.0028 10.3578 11.4649C10.8861 10.9271 10.8861 10.055 10.3578 9.51729C10.8861 10.055 11.7427 10.055 12.271 9.51729C12.7992 8.97952 12.7992 8.10746 12.271 7.5697C12.7992 8.10746 13.6559 8.10746 14.1841 7.5697C14.7125 7.03177 14.7125 6.15987 14.1841 5.62195L11.4867 2.87592C10.9584 2.33815 10.1018 2.33815 9.57352 2.87592C9.04527 3.41368 9.04527 4.28574 9.57352 4.8235L9.91145 5.16768C9.3832 4.62975 8.52655 4.62975 7.9983 5.16768C7.47005 5.70544 7.47005 6.5775 7.9983 7.11526L8.67431 7.80344C8.14606 7.26568 7.28942 7.26568 6.76117 7.80344C6.23276 8.3412 6.23276 9.21327 6.76117 9.75103L7.43718 10.4394C6.90877 9.90145 6.05229 9.90145 5.52387 10.4394C4.99562 10.9771 4.99562 11.849 5.52387 12.387L6.5314 13.4125Z" fill="#B4A498"/>
<path d="M14.822 2.87945C14.925 2.77845 15.034 2.68563 15.1474 2.59939L14.74 2.20002C14.5282 1.99215 14.204 1.94076 13.9361 2.07199L12.217 2.91466L13.5016 4.17413L14.822 2.87945Z" fill="#70655C"/>
</svg>
