<svg width="800" height="599.9999999999999" xmlns="http://www.w3.org/2000/svg">
 <g>
  <title>Layer 1</title>
  <text font-weight="bold" transform="matrix(1.81887 0 0 1.94598 -774.31 -274.767)" xml:space="preserve" text-anchor="start" font-family="'Arimo'" font-size="60" id="svg_8" y="315.06325" x="622.78006" stroke-width="0" fill="#FFDFB8">F M C</text>
  <path fill="none" stroke="null" stroke-width="0" id="svg_2" d="m280.6666,162.22223c-0.55554,0 -0.9408,0.25488 -1.66666,0.55554c-0.51328,0.21262 -0.55557,0.55556 -0.55557,1.66667c0,1.11111 0,1.66667 0,2.22223c0,0.55556 0,1.1111 0,1.66666c0,0.55556 0,1.66667 0,2.22223c0,0.55556 -0.21262,1.15341 0,1.66667c0.30069,0.72586 0.9408,0.81044 1.66669,1.1111c1.02655,0.4252 1.66666,0 2.2222,0c1.11111,0 1.66669,0 2.22223,0c0.55557,0 1.56912,0.50117 2.22223,-0.55556c0.29205,-0.47256 0.34293,-0.59782 0.55554,-1.1111c0.60132,-1.45174 1.11111,-1.66667 1.11111,-2.22223c0,-0.55556 0.55557,-1.66667 0.55557,-2.22221c0,-0.55556 0,-1.11111 0,-1.66667c0,-1.11111 -0.16272,-1.82939 -0.55557,-2.22223c-0.39282,-0.39282 -1.21445,0.17078 -2.2222,-0.55556c-0.63739,-0.45938 -1.11111,-0.55554 -2.22223,-0.55554c-0.55557,0 -1.11111,0 -1.66669,0l-0.55554,0l-0.55554,0l-0.55557,0"/>
  <g id="svg_17" stroke="null">
   <rect fill="#FFDFB8" stroke-width="0" x="222.56152" y="231.32351" width="75.55556" height="2.69415" id="svg_5" transform="matrix(0.661213 -1.38468 1.32243 0.69234 -275.689 482.555)" stroke="null"/>
   <ellipse fill="#FFDFB8" stroke-width="0" cx="237.39582" cy="213.19782" id="svg_6" rx="14.37447" ry="14.19109" stroke="null"/>
   <rect fill="#FFDFB8" stroke-width="0" x="226.86944" y="325.29936" width="75.55556" height="2.59301" id="svg_9" transform="matrix(0.610757 1.40986 -1.34647 0.639509 547.329 -298.274)" stroke="null"/>
   <rect fill="#FFDFB8" stroke-width="0" x="167.14087" y="332.15201" width="75.55556" height="10.88408" id="svg_10" transform="matrix(1.15259 0.969633 -0.926039 1.20685 275.537 -269.733)" stroke="null"/>
   <rect fill="#FFDFB8" stroke-width="0" x="296.55453" y="368.86187" width="75.55556" height="10.88408" id="svg_11" transform="matrix(-1.11812 1.01292 -0.967377 -1.17076 1010.58 435.956)" stroke="null"/>
   <rect fill="#FFDFB8" stroke-width="0" x="239.17389" y="301.57758" width="25.35976" height="6.608" id="svg_12" transform="matrix(0.610756 1.40986 -1.34647 0.639508 506.99 -299.966)" stroke="null"/>
   <rect fill="#FFDFB8" stroke-width="0" x="265.74335" y="320.71546" width="25.35976" height="6.43602" id="svg_13" transform="matrix(-0.650924 1.39001 -1.32752 -0.681567 835.552 84.0298)" stroke="null"/>
   <rect fill="#FFDFB8" stroke-width="0" x="228.98665" y="236.37918" width="6.89938" height="3.35823" id="svg_15" transform="matrix(1.3487 -0.634347 0.605827 1.41219 -243.026 80.722)" stroke="null"/>
   <rect fill="#FFDFB8" stroke-width="0" x="240.60202" y="282.57769" width="6.89938" height="3.35823" id="svg_16" transform="matrix(1.30509 0.727504 -0.694796 1.36653 138.476 -296.066)" stroke="null"/>
  </g>
 </g>

</svg>