<?xml version="1.0" encoding="utf-8"?>
<!-- Generator: Adobe Illustrator 24.0.2, SVG Export Plug-In . SVG Version: 6.00 Build 0)  -->
<svg version="1.1" id="图层_1" xmlns="http://www.w3.org/2000/svg" xmlns:xlink="http://www.w3.org/1999/xlink" x="0px" y="0px"
	 viewBox="0 0 800 600" style="enable-background:new 0 0 800 600;" xml:space="preserve">
<style type="text/css">
	.st0{fill:#FFDFB8;}
	.st1{font-family:'Arial-BoldMT';}
	.st2{font-size:116.7588px;}
	.st3{fill:none;}
</style>
<g>
	<title>Layer 1</title>
	<text id="svg_8" transform="matrix(0.9347 0 0 1 358.4453 338.3398)" class="st0 st1 st2">F M </text>
	<path id="svg_2" class="st3" d="M280.7,162.2c-0.6,0-0.9,0.3-1.7,0.6c-0.5,0.2-0.6,0.6-0.6,1.7s0,1.7,0,2.2s0,1.1,0,1.7
		s0,1.7,0,2.2s-0.2,1.2,0,1.7c0.3,0.7,0.9,0.8,1.7,1.1c1,0.4,1.7,0,2.2,0c1.1,0,1.7,0,2.2,0c0.6,0,1.6,0.5,2.2-0.6
		c0.3-0.5,0.3-0.6,0.6-1.1c0.6-1.5,1.1-1.7,1.1-2.2s0.6-1.7,0.6-2.2c0-0.6,0-1.1,0-1.7c0-1.1-0.2-1.8-0.6-2.2
		c-0.4-0.4-1.2,0.2-2.2-0.6c-0.6-0.5-1.1-0.6-2.2-0.6c-0.6,0-1.1,0-1.7,0h-0.6h-0.6H280.7"/>
	<g id="svg_17">
		<polygon id="svg_5" class="st0" points="177.4,334.5 227.3,229.9 230.9,231.8 180.9,336.4 		"/>
		<ellipse id="svg_6" class="st0" cx="237.4" cy="213.2" rx="14.4" ry="14.2"/>
		<polygon id="svg_9" class="st0" points="247.9,229.6 294,336.1 290.5,337.8 244.4,231.3 		"/>
		<polygon id="svg_10" class="st0" points="160.6,293.2 247.7,366.5 237.6,379.6 150.5,306.3 		"/>
		<polygon id="svg_11" class="st0" points="322.2,304.5 237.7,381 227.2,368.3 311.6,291.8 		"/>
		<polygon id="svg_12" class="st0" points="247,230.1 262.5,265.9 253.6,270.1 238.1,234.3 		"/>
		<polygon id="svg_13" class="st0" points="236.8,234.8 220.3,270.1 211.8,265.7 228.3,230.4 		"/>
		<polygon id="svg_15" class="st0" points="209,269.3 218.3,264.9 220.4,269.6 211,274 		"/>
		<polygon id="svg_16" class="st0" points="256.1,265.1 265.2,270.1 262.8,274.7 253.8,269.7 		"/>
	</g>
</g>
</svg>
