<svg width="25" height="24" viewBox="0 0 25 24" fill="none" xmlns="http://www.w3.org/2000/svg">
<g clip-path="url(#clip0_1458_21584)">
<path d="M8.25757 17.7407V18.6611C8.25757 19.9527 11.0091 21 14.4016 21C15.2395 21 16.0329 20.9365 16.7596 20.8223C18.9875 20.4668 20.5489 19.6353 20.5489 18.6611V17.7375C19.4096 18.8229 16.8961 19.3815 14.4016 19.3815C11.9104 19.3815 9.39689 18.8229 8.25757 17.7407Z" fill="#70655C"/>
<path d="M10.3996 15.0464C10.2378 15.0019 10.0791 14.9543 9.92676 14.9035V15.5954C9.92676 16.887 12.6783 17.9343 16.0708 17.9343C16.9086 17.9343 17.702 17.8708 18.4288 17.7566C20.6567 17.4012 22.2181 16.5697 22.2181 15.5954V14.6719C21.0787 15.7572 18.5653 16.3158 16.0708 16.3158C13.8811 16.3158 11.6754 15.8842 10.3996 15.0464Z" fill="#70655C"/>
<path d="M16.6262 15.3225C15.8424 15.4463 15.0141 15.5097 14.1667 15.5097C14.0176 15.5097 13.8652 15.5066 13.7161 15.5034C14.4397 15.6176 15.2362 15.6811 16.0709 15.6811C19.4634 15.6811 22.2149 14.6338 22.2149 13.3422C22.2149 12.8058 21.7421 12.3108 20.9487 11.9172V12.5361C20.9487 13.8499 19.3333 14.8909 16.6262 15.3225Z" fill="#70655C"/>
<path d="M14.1677 14.8739C15.0056 14.8739 15.799 14.8104 16.5257 14.6962C18.7536 14.3407 20.315 13.5092 20.315 12.535V11.6115C19.1757 12.6968 16.6622 13.2554 14.1677 13.2554C11.6765 13.2554 9.16301 12.6968 8.02368 11.6146V12.535C8.02368 13.8266 10.7752 14.8739 14.1677 14.8739Z" fill="#70655C"/>
<path d="M14.1668 12.6186C17.261 12.6186 19.8221 11.749 20.2505 10.6161C19.8062 10.7462 19.3175 10.8541 18.7843 10.9398C18.0005 11.0635 17.1722 11.1238 16.3248 11.1238C13.2909 11.1238 10.2188 10.2923 9.64123 8.69922C8.63838 9.11496 8.02271 9.66716 8.02271 10.2797C8.02271 11.5713 10.7742 12.6186 14.1668 12.6186Z" fill="#70655C"/>
<path d="M16.3259 8.87127C13.8347 8.87127 11.3212 8.31272 10.1819 7.23053V8.15088C10.1819 9.44251 12.9334 10.4898 16.3259 10.4898C17.1638 10.4898 17.9572 10.4263 18.6839 10.3121C20.9118 9.95663 22.4732 9.12515 22.4732 8.15088V7.22736C21.3339 8.31272 18.8204 8.87127 16.3259 8.87127Z" fill="#70655C"/>
<path d="M16.3261 8.23583C19.7199 8.23583 22.4712 7.18836 22.4712 5.89624C22.4712 4.60411 19.7199 3.55664 16.3261 3.55664C12.9322 3.55664 10.1809 4.60411 10.1809 5.89624C10.1809 7.18836 12.9322 8.23583 16.3261 8.23583Z" fill="#70655C"/>
<path d="M8.26709 16.4078C8.26709 17.6995 11.0186 18.7467 14.4111 18.7467C15.3029 18.7467 16.1534 18.6737 16.9183 18.5436C16.639 18.5627 16.3566 18.569 16.0709 18.569C12.7038 18.569 9.29215 17.5471 9.29215 15.5954V15.1161C8.64475 15.4843 8.26709 15.9318 8.26709 16.4078Z" fill="#70655C"/>
<path d="M9.13436 6.89136C8.24509 5.02391 10.0977 3.44547 11.1352 2.88968L8.24511 1L9.13436 3.44547L6.02195 2.77852L7.91163 4.33473L0.908691 5.00168L7.91163 6.11326L6.6889 7.66947L9.13436 6.89136Z" fill="#B4A498"/>
</g>
<defs>
<clipPath id="clip0_1458_21584">
<rect width="24" height="24" fill="white" transform="translate(0.908691)"/>
</clipPath>
</defs>
</svg>
