<svg width="42" height="42" viewBox="0 0 42 42" fill="none" xmlns="http://www.w3.org/2000/svg">
<path d="M37 10.9655C35.86 11.4666 34.6353 11.8052 33.3479 11.9582C34.6763 11.1697 35.6701 9.92863 36.144 8.46661C34.8959 9.20203 33.5299 9.71968 32.1055 9.99707C31.1476 8.98245 29.8788 8.30994 28.4961 8.08396C27.1135 7.85798 25.6943 8.09116 24.4589 8.74731C23.2235 9.40346 22.241 10.4459 21.664 11.7127C21.087 12.9795 20.9478 14.3998 21.2679 15.7532C18.739 15.6273 16.265 14.9752 14.0066 13.8393C11.7481 12.7035 9.75566 11.1092 8.1585 9.16006C7.61239 10.0946 7.29838 11.1781 7.29838 12.332C7.29777 13.3708 7.55564 14.3937 8.04912 15.31C8.54259 16.2262 9.25641 17.0074 10.1272 17.5843C9.11731 17.5525 8.12966 17.2818 7.2465 16.7947V16.876C7.2464 18.333 7.75443 19.7451 8.68439 20.8728C9.61435 22.0005 10.909 22.7743 12.3485 23.0628C11.4117 23.3144 10.4294 23.3514 9.476 23.1712C9.88216 24.4248 10.6733 25.5211 11.7388 26.3065C12.8042 27.0919 14.0905 27.5272 15.4177 27.5513C13.1648 29.3058 10.3824 30.2575 7.51819 30.2533C7.01083 30.2534 6.50389 30.224 6 30.1653C8.90733 32.0196 12.2917 33.0038 15.7481 33C27.4485 33 33.8448 23.3865 33.8448 15.0489C33.8448 14.7781 33.838 14.5045 33.8257 14.2336C35.0699 13.341 36.1438 12.2357 36.9973 10.9695L37 10.9655V10.9655Z" fill="black"/>
</svg>
